<svg xmlns="http://www.w3.org/2000/svg" viewBox="0 0 40 40"><defs><style>.cls-1{opacity:0.25;}.cls-2{fill:none;}.cls-3{fill:#231f20;}</style></defs><title>Edit</title><g id="Layer_2" data-name="Layer 2"><g id="Edit"><path d="M20.61,13.74h0l5.65,5.65-8.93,8.94-6.23.57.57-6.23,8.94-8.93h0m0-1a1,1,0,0,0-.71.29l-9.19,9.19L10,30l7.78-.71L27,20.1a1,1,0,0,0,0-1.41L21.31,13a1,1,0,0,0-.7-.29Z"/><g class="cls-1"><path d="M17.78,29.29,10,30l.71-7.78L19.9,13a1,1,0,0,1,1.41,0L27,18.69a1,1,0,0,1,0,1.41Z"/></g><path d="M24.14,10.2l5.66,5.66-1.42,1.41-5.65-5.65,1.41-1.42h0m0-1a1,1,0,0,0-.7.29L22,10.91a1,1,0,0,0,0,1.41L27.68,18a1,1,0,0,0,1.41,0l1.42-1.42a1,1,0,0,0,0-1.41L24.85,9.49a1,1,0,0,0-.71-.29Z"/><rect class="cls-2" width="40" height="40"/><g class="cls-1"><rect class="cls-3" x="24.26" y="8.74" width="4" height="10" rx="1" ry="1" transform="translate(-2.02 22.59) rotate(-45)"/></g></g></g></svg>