<?xml version="1.0" encoding="UTF-8"?>
<svg width="32px" height="32px" viewBox="0 0 32 32" version="1.1" xmlns="http://www.w3.org/2000/svg" xmlns:xlink="http://www.w3.org/1999/xlink">
    <!-- Generator: Sketch 47.1 (45422) - http://www.bohemiancoding.com/sketch -->
    <title>Icon/22/Bright/Caramel/Stats</title>
    <desc>Created with Sketch.</desc>
    <defs>
        <path d="M0,4 L4,4 L4,18 L0,18 L0,4 Z M14,10 L18,10 L18,18 L14,18 L14,10 Z M7,0 L11,0 L11,18 L7,18 L7,0 Z" id="path-1"></path>
        <path d="M1,6 L1,18 L1,18 C1,18.5522847 1.44771525,19 2,19 L4,19 L4,19 C4.55228475,19 5,18.5522847 5,18 L5,6 L5,6 C5,5.44771525 4.55228475,5 4,5 L2,5 L2,5 C1.44771525,5 1,5.44771525 1,6 Z M2,4 L4,4 L4,4 C5.1045695,4 6,4.8954305 6,6 L6,18 L6,18 C6,19.1045695 5.1045695,20 4,20 L2,20 L2,20 C0.8954305,20 1.70106607e-14,19.1045695 1.687539e-14,18 L6.12530859e-15,6 L4.88498131e-15,6 C3.76865577e-15,4.8954305 0.8954305,4 2,4 L2,4 Z M13,2 L13,18 C13,19.1045695 12.1045695,20 11,20 L9,20 C7.8954305,20 7,19.1045695 7,18 L7,2 L7,2 C7,0.8954305 7.8954305,7.30833348e-15 9,7.10542736e-15 L11,7.54951657e-15 C12.1045695,7.34661044e-15 13,0.8954305 13,2 L13,2 Z M20,12 L20,18 L20,18 C20,19.1045695 19.1045695,20 18,20 L16,20 C14.8954305,20 14,19.1045695 14,18 L14,12 C14,10.8954305 14.8954305,10 16,10 L18,10 C19.1045695,10 20,10.8954305 20,12 Z M8,2 L8,18 C8,18.5522847 8.44771525,19 9,19 L11,19 C11.5522847,19 12,18.5522847 12,18 L12,2 L12,2 C12,1.44771525 11.5522847,1 11,1 L9,1 C8.44771525,1 8,1.44771525 8,2 L8,2 Z M15,12 L15,18 C15,18.5522847 15.4477153,19 16,19 L18,19 C18.5522847,19 19,18.5522847 19,18 L19,12 C19,11.4477153 18.5522847,11 18,11 L16,11 C15.4477153,11 15,11.4477153 15,12 Z" id="path-3"></path>
    </defs>
    <g id="22" stroke="none" stroke-width="1" fill="none" fill-rule="evenodd">
        <g id="Icon/22/Bright/Caramel/Stats">
            <g id="Guides---22pt"></g>
            <g id="Stats" transform="translate(6.000000, 6.000000)">
                <g id="Fill" transform="translate(1.000000, 1.000000)">
                    <mask id="mask-2" fill="white">
                        <use xlink:href="#path-1"></use>
                    </mask>
                    <use id="Mask" fill="#979797" fill-rule="nonzero" xlink:href="#path-1"></use>
                    <g id="Color/Neutral/200" mask="url(#mask-2)" fill="#E3E6E9">
                        <g transform="translate(-7.000000, -7.000000)" id="Rectangle">
                            <rect x="0" y="0" width="32" height="32"></rect>
                        </g>
                    </g>
                </g>
                <g id="Outline">
                    <mask id="mask-4" fill="white">
                        <use xlink:href="#path-3"></use>
                    </mask>
                    <use id="Mask" fill="#979797" fill-rule="nonzero" xlink:href="#path-3"></use>
                    <g id="Color/Neutral/700" mask="url(#mask-4)" fill="#4B4D57">
                        <g transform="translate(-6.000000, -6.000000)" id="Rectangle">
                            <rect x="0" y="0" width="32" height="32"></rect>
                        </g>
                    </g>
                </g>
            </g>
        </g>
    </g>
</svg>